Coordinates
version=1
nRows=17
nColumns=40
inDegrees=yes

Units are S.I. units (second, meters, Newtons, ...)
If the header above contains a line with 'inDegrees', this indicates whether rotational values are in degrees (yes) or radians (no).

endheader
time	pelvis_tilt	pelvis_list	pelvis_rotation	pelvis_tx	pelvis_ty	pelvis_tz	hip_flexion_r	hip_adduction_r	hip_rotation_r	knee_angle_r	knee_angle_r_beta	ankle_angle_r	subtalar_angle_r	mtp_angle_r	hip_flexion_l	hip_adduction_l	hip_rotation_l	knee_angle_l	knee_angle_l_beta	ankle_angle_l	subtalar_angle_l	mtp_angle_l	lumbar_extension	lumbar_bending	lumbar_rotation	arm_flex_r	arm_add_r	arm_rot_r	elbow_flex_r	pro_sup_r	wrist_flex_r	wrist_dev_r	arm_flex_l	arm_add_l	arm_rot_l	elbow_flex_l	pro_sup_l	wrist_flex_l	wrist_dev_l
      0.48000000	     -2.22947650	      7.19091596	    -84.01158611	      0.29289275	      0.87166791	      0.41010682	     28.93817301	     -9.82255509	    -21.45272911	     33.49348463	      0.58457158	     -1.62728584	      0.00000000	      0.00000000	      5.44417019	      1.66095774	     -0.69180170	     13.66802293	      0.23855200	      4.74812434	      0.00000000	      0.00000000	     -1.09327886	      4.82369562	    -11.47063084	    -10.23832697	     -6.65621975	     -1.38401746	     29.75544300	     89.03420936	    -25.81116002	      4.72465938	     17.68741437	    -12.18024164	     18.97516735	     50.20839680	     89.31188958	    -24.66172156	     -0.48878048
      0.49000000	     -2.51011062	      6.50195680	    -83.80120965	      0.29304590	      0.87201269	      0.41898430	     28.27457228	     -9.12220237	    -22.66350534	     29.92758511	      0.52233490	     -1.94825320	      0.00000000	      0.00000000	      3.77395316	      1.21649657	     -0.75057971	     13.08802481	      0.22842913	      5.13312286	      0.00000000	      0.00000000	     -2.03451026	      5.36607733	    -11.78311880	    -10.39017946	     -6.71584787	     -1.28095618	     29.82610746	     89.03257682	    -25.97313315	      4.19623165	     18.37410205	    -12.22339781	     18.39043885	     51.07443687	     89.32015128	    -24.18578867	     -0.23381062
      0.50000000	     -2.50804829	      6.47570769	    -83.87026935	      0.29263643	      0.87122317	      0.42770283	     28.50689824	     -8.58139024	    -23.17552380	     26.59868718	      0.46423467	     -2.11344390	      0.00000000	      0.00000000	      2.74559693	      1.13101870	     -0.85510893	     12.39600995	      0.21635119	      5.24386685	      0.00000000	      0.00000000	     -2.22291392	      5.50876167	    -11.90631629	    -10.57482335	     -6.69968958	     -1.26523101	     29.85202410	     89.03415501	    -26.20542917	      3.89825575	     18.89525644	    -12.36654434	     18.01586732	     51.82644649	     89.32315589	    -23.70835650	      0.02280347
      0.51000000	     -2.15120693	      6.87718068	    -83.90739045	      0.29220197	      0.86952949	      0.43624175	     29.27929964	     -8.44406259	    -23.25501995	     23.55495743	      0.41111156	     -2.02355770	      0.00000000	      0.00000000	      2.21779634	      1.47407794	     -0.93643065	     11.85376435	      0.20688722	      5.44094486	      0.00000000	      0.00000000	     -1.93270346	      5.17889795	    -12.09303704	    -10.82540440	     -6.59985180	     -1.31549943	     29.91600423	     89.03523405	    -26.27332995	      3.83681107	     19.37550981	    -12.59953899	     17.90337302	     52.41464625	     89.32065888	    -23.62971378	      0.01759346
      0.52000000	     -2.38332935	      6.64915377	    -83.98192006	      0.29154076	      0.86880802	      0.44520549	     29.13614261	     -7.49483037	    -23.55526479	     20.06184688	      0.35014528	     -2.70961660	      0.00000000	      0.00000000	      0.97292238	      1.08871178	     -1.08929402	     11.15113548	      0.19462403	      5.50993782	      0.00000000	      0.00000000	     -2.35785591	      5.60133583	    -12.11534117	    -10.88029763	     -6.61253446	     -1.14840169	     29.75219860	     89.03474873	    -26.88072921	      3.28150567	     19.72514506	    -12.63393080	     17.00619798	     53.40518617	     89.32960378	    -21.46329246	      1.22900706
      0.53000000	     -2.16486191	      7.05274827	    -84.04625137	      0.29089679	      0.86687791	      0.45390057	     29.81446639	     -7.11651043	    -23.24439825	     17.06748007	      0.29788372	     -3.01310341	      0.00000000	      0.00000000	      0.48223578	      1.26793019	     -1.07833110	     10.67294546	      0.18627804	      5.68368422	      0.00000000	      0.00000000	     -2.05871649	      5.42726878	    -12.21164721	    -11.04605367	     -6.52643093	     -1.25399787	     29.69981464	     89.04136747	    -26.87977587	      3.25275574	     20.04004788	    -12.77674565	     16.78809243	     54.02249824	     89.32878442	    -21.43927228	      1.19880164
      0.54000000	     -1.97586148	      7.39692941	    -84.06047726	      0.29032211	      0.86491760	      0.46272834	     30.35508572	     -6.72272151	    -22.74046185	     14.19213914	      0.24769956	     -3.43456221	      0.00000000	      0.00000000	     -0.04473430	      1.40344394	     -1.08708611	     10.25423340	      0.17897014	      5.87771455	      0.00000000	      0.00000000	     -1.80554011	      5.30272307	    -12.34805528	    -11.17334112	     -6.46042575	     -1.35474533	     29.63865318	     89.04371466	    -26.87098561	      3.20980762	     20.28243821	    -12.89895281	     16.56247321	     54.63161205	     89.32655432	    -21.40544709	      1.17529585
      0.55000000	     -1.85446240	      7.60865015	    -84.12602436	      0.28957040	      0.86308779	      0.47176736	     30.71224474	     -6.24175841	    -22.18054425	     11.51600338	      0.20099218	     -4.12521885	      0.00000000	      0.00000000	     -0.70467665	      1.43664976	     -1.24827915	      9.87766411	      0.17239776	      6.08662245	      0.00000000	      0.00000000	     -1.70803437	      5.26960935	    -12.41748231	    -11.24530415	     -6.40743179	     -1.41979950	     29.56290815	     89.04541927	    -26.80965001	      3.12355171	     20.43820144	    -12.97027049	     16.19262047	     55.25446330	     89.32940131	    -21.30125316	      1.20971375
      0.56000000	     -1.60673650	      7.87198024	    -84.07738476	      0.28898693	      0.86101270	      0.48083856	     31.11928456	     -6.01424960	    -21.43242981	      9.26989334	      0.16179016	     -4.51507400	      0.00000000	      0.00000000	     -1.25328801	      1.60807666	     -1.16351844	      9.63072602	      0.16808788	      6.29508133	      0.00000000	      0.00000000	     -1.53099404	      5.08826880	    -12.58815187	    -11.32036951	     -6.31910850	     -1.55415946	     29.48432224	     89.04480792	    -26.78741036	      3.09291775	     20.56931263	    -13.09459444	     16.03113443	     55.81428625	     89.32817212	    -21.20107605	      1.21661414
      0.57000000	     -1.32276182	      8.13093847	    -83.97392402	      0.28840640	      0.85883697	      0.49014042	     31.55560623	     -5.93977658	    -20.97772625	      7.58022050	      0.13229981	     -4.56194441	      0.00000000	      0.00000000	     -1.76506838	      1.80162538	     -1.13073194	      9.51222441	      0.16601964	      6.56238289	      0.00000000	      0.00000000	     -1.33382740	      4.84574238	    -12.74258628	    -11.43876860	     -6.22628402	     -1.66473040	     29.41921055	     89.03626929	    -26.78751656	      3.08953090	     20.66679360	    -13.20506771	     16.00893468	     56.30962584	     89.34191580	    -21.15380068	      1.17152496
      0.58000000	     -1.13799143	      8.35346756	    -83.85193263	      0.28780609	      0.85676929	      0.49943848	     31.87063338	     -5.79580953	    -20.04669887	      6.08908570	      0.10627459	     -5.05116231	      0.00000000	      0.00000000	     -2.26475839	      1.87816785	     -0.96918625	      9.45665257	      0.16504972	      6.78326596	      0.00000000	      0.00000000	     -1.18179286	      4.75113225	    -12.99886260	    -11.42202067	     -6.13705340	     -1.84072947	     29.34128766	     89.03532297	    -26.77293315	      3.06683305	     20.62891341	    -13.33367819	     15.84613088	     56.80300013	     89.34434516	    -21.10764671	      1.13390556
      0.59000000	     -0.99326554	      8.45796656	    -83.79522854	      0.28719278	      0.85488061	      0.50890985	     32.12522774	     -5.65956600	    -19.34445295	      5.16560869	      0.09015688	     -5.66329323	      0.00000000	      0.00000000	     -2.84115457	      1.89174006	     -0.96154886	      9.51869888	      0.16613264	      6.93714278	      0.00000000	      0.00000000	     -1.19118308	      4.72578997	    -13.11946410	    -11.37404533	     -6.10034564	     -1.98426328	     29.24603585	     89.04204989	    -26.68933904	      3.00049887	     20.51875920	    -13.31072676	     15.48494386	     57.34038720	     89.33365869	    -20.99715986	      1.12437213
      0.60000000	     -0.90048008	      8.54213716	    -83.62196067	      0.28660643	      0.85300697	      0.51881544	     32.45710431	     -5.63110673	    -19.18278561	      5.04556319	      0.08806169	     -5.71328506	      0.00000000	      0.00000000	     -3.41306588	      1.82077603	     -0.94899106	      9.65996437	      0.16859818	      6.97775283	      0.00000000	      0.00000000	     -1.12631052	      4.72648720	    -13.20223374	    -11.45417942	     -6.06809394	     -2.01390932	     29.17701980	     89.03017442	    -26.68603224	      3.00578708	     20.49019700	    -13.24389835	     15.53586561	     57.52219058	     89.30882611	    -20.97519142	      1.09816621
      0.61000000	     -0.82935052	      8.57459242	    -83.44838317	      0.28583776	      0.85128842	      0.52859559	     32.58069092	     -5.55176791	    -18.55875641	      4.91260488	      0.08574113	     -6.02779675	      0.00000000	      0.00000000	     -3.96170504	      1.70303552	     -0.78551747	      9.93430089	      0.17338626	      7.24894451	      0.00000000	      0.00000000	     -1.19540810	      4.78500061	    -13.47136487	    -11.29681967	     -6.00327966	     -2.20084441	     29.08734346	     89.02528907	    -26.67414858	      2.96764639	     20.21499961	    -13.39687192	     15.46174540	     58.06321210	     89.34417975	    -20.91527838	      0.99035453
      0.62000000	     -0.80273916	      8.52183436	    -83.28328372	      0.28508899	      0.84979427	      0.53883558	     32.65606764	     -5.49320400	    -18.32353727	      5.31297386	      0.09272889	     -6.38595846	      0.00000000	      0.00000000	     -4.57877431	      1.51563895	     -0.72055279	     10.30055897	      0.17977867	      7.34735507	      0.00000000	      0.00000000	     -1.30370070	      4.89807814	    -13.60699148	    -11.22818429	     -5.97770332	     -2.30343286	     29.00941905	     89.02706963	    -26.64980333	      2.91143512	     19.90176797	    -13.33309288	     15.27042238	     58.37700362	     89.33662599	    -20.86710300	      0.90346690
      0.63000000	     -0.85666338	      8.44669215	    -83.08265668	      0.28425999	      0.84845096	      0.54938852	     32.68439020	     -5.40994240	    -18.09695979	      6.03647319	      0.10535633	     -6.76426719	      0.00000000	      0.00000000	     -5.20233352	      1.21709503	     -0.66009381	     10.69120738	      0.18659677	      7.32780148	      0.00000000	      0.00000000	     -1.38952087	      5.10050545	    -13.75177044	    -11.15528622	     -5.96300811	     -2.37057639	     28.93802987	     89.02340996	    -26.63628987	      2.86639405	     19.51846784	    -13.28529670	     15.21127948	     58.56876709	     89.34932835	    -20.82293390	      0.82443049
      0.64000000	     -1.07374834	      8.01329403	    -82.79164543	      0.28334513	      0.84775399	      0.56021599	     32.35383333	     -5.21872245	    -18.46385085	      7.15504560	      0.12487910	     -7.06314925	      0.00000000	      0.00000000	     -6.09124839	      0.64717239	     -0.74945104	     11.30687421	      0.19734218	      7.42205617	      0.00000000	      0.00000000	     -1.89441669	      5.51082321	    -13.99218914	    -10.96499911	     -5.96706536	     -2.37393971	     28.82976558	     89.02554943	    -26.60140505	      2.62878494	     18.94972905	    -13.17013505	     14.73102173	     58.95877780	     89.35109295	    -20.61260892	      0.48722479
